<svg xmlns="http://www.w3.org/2000/svg" viewBox="0 0 680 560" role="img" aria-labelledby="title desc">
  <title id="title">Arquitectura de Baldr</title>
  <desc id="desc">Router coordina Agent Manager, Runner y agentes externos.</desc>
  <defs>
    <linearGradient id="panel" x1="0" y1="0" x2="1" y2="1">
      <stop stop-color="#263f31"/>
      <stop offset="1" stop-color="#111b17"/>
    </linearGradient>
    <filter id="shadow" x="-30%" y="-30%" width="160%" height="160%">
      <feDropShadow dx="0" dy="18" stdDeviation="20" flood-opacity=".28"/>
    </filter>
  </defs>
  <g fill="none" stroke="#597062" stroke-width="2">
    <path d="M340 102v75M340 383v75M153 280h83M444 280h83"/>
    <path d="M340 280 153 160M340 280l187-120M340 280 153 400M340 280l187 120" stroke-dasharray="6 8"/>
  </g>
  <g fill="#c8f169">
    <circle cx="340" cy="102" r="5"/><circle cx="340" cy="458" r="5"/>
    <circle cx="153" cy="280" r="5"/><circle cx="527" cy="280" r="5"/>
  </g>
  <g filter="url(#shadow)">
    <rect x="236" y="177" width="208" height="206" rx="38" fill="url(#panel)" stroke="#91b653" stroke-width="2"/>
    <path d="M286 223h82c30 0 46 14 46 39 0 18-10 31-28 35 22 4 34 18 34 39 0 28-19 43-51 43h-83V223Zm42 35v27h32c12 0 18-4 18-14 0-9-6-13-18-13h-32Zm0 61v28h37c13 0 20-5 20-14 0-10-7-14-20-14h-37Z" fill="#c8f169"/>
    <path d="m265 206 30 23-18 31-12-54Z" fill="#f0b35a"/>
  </g>
  <g font-family="Inter,ui-sans-serif,system-ui" text-anchor="middle">
    <g>
      <rect x="253" y="42" width="174" height="60" rx="18" fill="#18251f" stroke="#53685a"/>
      <text x="340" y="68" fill="#f1f5ef" font-size="14" font-weight="700">VS Code · Kiro · MCP</text>
      <text x="340" y="87" fill="#91a397" font-size="11">Superficies</text>
    </g>
    <g>
      <rect x="253" y="458" width="174" height="60" rx="18" fill="#18251f" stroke="#53685a"/>
      <text x="340" y="484" fill="#f1f5ef" font-size="14" font-weight="700">Workspace</text>
      <text x="340" y="503" fill="#91a397" font-size="11">Resultado verificable</text>
    </g>
    <g>
      <rect x="36" y="250" width="117" height="60" rx="18" fill="#18251f" stroke="#53685a"/>
      <text x="94" y="276" fill="#f1f5ef" font-size="13" font-weight="700">Manager</text>
      <text x="94" y="295" fill="#91a397" font-size="11">Identidad</text>
    </g>
    <g>
      <rect x="527" y="250" width="117" height="60" rx="18" fill="#18251f" stroke="#53685a"/>
      <text x="585" y="276" fill="#f1f5ef" font-size="13" font-weight="700">Runner</text>
      <text x="585" y="295" fill="#91a397" font-size="11">Ejecución</text>
    </g>
    <text x="340" y="411" fill="#c8f169" font-size="13" font-weight="700" letter-spacing="2">ROUTER</text>
  </g>
</svg>
